<svg xmlns="http://www.w3.org/2000/svg" width="1200" height="760" viewBox="0 0 1200 760">
<defs>
<linearGradient id="bg" x1="0" x2="1"><stop stop-color="#06101e"/><stop offset="1" stop-color="#030507"/></linearGradient>
<filter id="glow"><feGaussianBlur stdDeviation="4" result="b"/><feMerge><feMergeNode in="b"/><feMergeNode in="SourceGraphic"/></feMerge></filter>
</defs>
<rect width="1200" height="760" rx="40" fill="url(#bg)"/>
<circle cx="980" cy="120" r="180" fill="#26e0a8" opacity=".14"/>
<rect x="70" y="80" width="1060" height="600" rx="28" fill="#0b1524" stroke="#26e0a8" stroke-opacity=".45"/>
<rect x="110" y="130" width="380" height="44" rx="12" fill="#26e0a8" opacity=".28"/>
<text x="110" y="230" fill="white" font-family="Inter,Arial" font-size="54" font-weight="900">SUNAT Masivo</text>
<text x="110" y="282" fill="#b9c3cf" font-family="Inter,Arial" font-size="26">Demo visual del sistema · JYM Tecnología</text>
<g filter="url(#glow)">
<rect x="110" y="350" width="250" height="170" rx="20" fill="#101d30" stroke="#26e0a8" stroke-opacity=".5"/>
<rect x="400" y="350" width="250" height="170" rx="20" fill="#101d30" stroke="#26e0a8" stroke-opacity=".5"/>
<rect x="690" y="350" width="360" height="170" rx="20" fill="#101d30" stroke="#26e0a8" stroke-opacity=".5"/>
<path d="M130 470 C220 380, 270 530, 340 420" fill="none" stroke="#26e0a8" stroke-width="8"/>
<path d="M425 460 L465 410 L510 445 L570 390 L625 465" fill="none" stroke="#26e0a8" stroke-width="8"/>
<circle cx="860" cy="435" r="65" fill="none" stroke="#26e0a8" stroke-width="16"/>
</g>
<rect x="110" y="570" width="940" height="38" rx="12" fill="#26e0a8" opacity=".13"/>
<rect x="110" y="625" width="620" height="24" rx="10" fill="white" opacity=".09"/>
</svg>